:SAMPLES-PER-SECOND 30
:FULLY-SPECIFIED
:DEGREES
47
root  -3.79148 40.1489 -1.54895 34.0812 -88.1943 -37.1633
RightUpLeg  3.38064 -1.51577 3.37072
RightLeg  9.55717 -19.3881 -2.7864
RightFoot  -8.74516 -0.0721081 0.614365
RightToes  -3.1126e-008 1.75238e-005 3.56266e-009
Spine  -4.81554 -4.55854 5.17537
Spine1  17.5833 -7.75867 9.69592
HEad  -12.7049 20.1933 -5.71356
LeftShoulder1  2.92856 -6.60214 -22.6977
LeftArm  -48.9305 12.7106 -60.4404
LeftForeArm  92.9859 -2.44407 10.4121
LeftHand  0.337152 -7.64596 -2.65922
RightShoulder  2.28355 4.46255 22.4601
RightArm  -16.9472 -21.3449 51.8863
RightForeArm  27.3473 23.5551 3.65314
RightHand  -0.0472878 2.88741 -0.884735
LeftUpLeg  -1.70304 10.8421 7.49396
LeftLeg  18.9024 -0.745785 0.0343157
LeftFoot  -10.623 0.108862 -7.20487
LeftToes  4.78349e-008 1.46828e-008 1.33736e-009
48
root  -3.82578 40.1228 -1.57423 43.0798 -88.0763 -45.6345
RightUpLeg  2.79826 -1.18118 3.79783
RightLeg  9.67895 -19.6446 -2.86508
RightFoot  -8.82303 -0.0725376 0.582942
RightToes  -3.1126e-008 1.75238e-005 3.56266e-009
Spine  -5.27725 -4.66166 5.01634
Spine1  17.5137 -7.93002 9.84597
HEad  -13.6737 17.8483 -7.07692
LeftShoulder1  2.9658 -6.52831 -23.3165
LeftArm  -51.0606 17.2664 -62.2835
LeftForeArm  86.1519 -4.4783 9.48045
LeftHand  0.558228 -5.59497 -5.49607
RightShoulder  2.4153 4.88884 22.5767
RightArm  -15.2279 -21.6117 50.8483
RightForeArm  26.7596 24.4458 3.81853
RightHand  0.00256064 2.91644 -0.188351
LeftUpLeg  -2.28055 11.0723 7.75674
LeftLeg  19.0887 -0.734223 0.0359035
LeftFoot  -11.0367 0.0847531 -7.0232
LeftToes  4.78349e-008 1.46828e-008 1.33736e-009
49
root  -3.87446 40.046 -1.61148 48.9975 -87.4391 -51.3497
RightUpLeg  2.52244 -0.991846 4.50323
RightLeg  10.0159 -20.1627 -2.85707
RightFoot  -9.14736 -0.0715921 0.491044
RightToes  -3.1126e-008 1.75238e-005 3.56266e-009
Spine  -6.05494 -4.60758 5.20774
Spine1  18.2779 -7.91539 9.7531
HEad  -14.6407 14.5332 -7.37068
LeftShoulder1  2.88829 -6.22133 -23.4571
LeftArm  -51.6465 21.2042 -64.1254
LeftForeArm  82.5339 -7.21618 7.70488
LeftHand  0.622931 -6.53585 -5.73548
RightShoulder  2.44433 4.82757 23.1728
RightArm  -13.1887 -21.2536 49.4349
RightForeArm  25.631 24.8843 3.97412
RightHand  -0.0338608 3.0464 -0.68778
LeftUpLeg  -2.9843 10.5374 8.36093
LeftLeg  20.1273 -0.456084 0.135655
LeftFoot  -11.9002 0.0364259 -7.07399
LeftToes  4.78349e-008 1.46828e-008 1.33736e-009
50
root  -3.93192 39.9103 -1.67284 49.2409 -86.1554 -51.6741
RightUpLeg  2.45532 -0.987114 5.54823
RightLeg  10.6516 -21.037 -2.72567
RightFoot  -9.73819 -0.0703873 0.325508
RightToes  -3.1126e-008 1.75238e-005 3.56266e-009
Spine  -6.93437 -4.39159 5.26497
Spine1  19.4032 -7.96356 10.4272
HEad  -14.7085 10.1722 -7.28552
LeftShoulder1  3.04447 -6.52332 -24.1572
LeftArm  -51.1407 23.9293 -64.6885
LeftForeArm  79.5538 -8.61184 5.90619
LeftHand  0.430173 -7.73125 -3.43664
RightShoulder  2.43055 4.69175 23.5097
RightArm  -12.4626 -21.3181 48.371
RightForeArm  25.2743 25.3446 4.08971
RightHand  -0.117521 3.29784 -1.81619
LeftUpLeg  -3.91743 9.07337 9.381
LeftLeg  22.0315 0.0674013 0.350725
LeftFoot  -13.1642 -0.0355017 -7.1971
LeftToes  4.78349e-008 1.46828e-008 1.33736e-009
51
root  -3.98053 39.7741 -1.737 49.1889 -84.7274 -51.7254
RightUpLeg  2.39672 -0.964333 6.66671
RightLeg  11.265 -21.9715 -2.55723
RightFoot  -10.2552 -0.0734287 0.434402
RightToes  -3.1126e-008 1.75238e-005 3.56266e-009
Spine  -7.58174 -4.20395 5.60022
Spine1  19.9796 -7.87325 10.6616
HEad  -14.9167 7.0213 -6.86694
LeftShoulder1  3.13695 -6.73395 -24.4516
LeftArm  -50.6418 26.4847 -65.2882
LeftForeArm  76.7091 -10.6895 4.09749
LeftHand  0.13541 -7.57716 -0.798944
RightShoulder  2.49172 4.75533 24.0502
RightArm  -12.0888 -21.0888 47.3362
RightForeArm  25.6682 24.6899 3.92744
RightHand  -0.211379 3.49944 -2.99032
LeftUpLeg  -5.04675 7.52001 10.5315
LeftLeg  24.1767 0.470126 0.553883
LeftFoot  -14.1729 -0.0943165 -7.22644
LeftToes  4.78349e-008 1.46828e-008 1.33736e-009
52
root  -4.05963 39.6586 -1.81642 48.0584 -83.8324 -50.9503
RightUpLeg  2.59432 -1.01918 7.41493
RightLeg  11.9961 -22.5715 -2.65021
RightFoot  -10.942 -0.073565 0.369319
RightToes  -3.1126e-008 1.75238e-005 3.56266e-009
Spine  -7.98236 -3.88515 5.69372
Spine1  20.4476 -7.44118 10.4741
HEad  -15.6029 3.6352 -7.85872
LeftShoulder1  3.07441 -6.5257 -24.4619
LeftArm  -49.9402 28.033 -65.556
LeftForeArm  75.1543 -12.4929 2.6929
LeftHand  -0.12756 -6.04133 1.61056
RightShoulder  2.62521 4.98502 24.8433
RightArm  -12.1282 -20.717 46.4425
RightForeArm  25.7285 23.2494 3.72628
RightHand  -0.310806 4.15569 -4.06771
LeftUpLeg  -5.55574 6.21065 11.286
LeftLeg  25.8325 0.8224 0.757903
LeftFoot  -14.7813 -0.138256 -7.54773
LeftToes  4.78349e-008 1.46828e-008 1.33736e-009
53
root  -4.16779 39.6506 -1.89217 47.9629 -83.9046 -51.1318
RightUpLeg  3.04301 -1.20411 7.3767
RightLeg  12.0604 -22.2925 -2.48996
RightFoot  -11.1727 -0.0763497 0.33162
RightToes  -3.1126e-008 1.75238e-005 3.56266e-009
Spine  -8.56796 -3.28848 5.57292
Spine1  20.5565 -6.56457 9.88087
HEad  -16.0189 -0.928485 -11.6822
LeftShoulder1  3.18064 -6.74421 -24.8682
LeftArm  -49.7056 28.7672 -64.8793
LeftForeArm  75.475 -13.3231 2.22775
LeftHand  -0.282406 -5.69134 3.27655
RightShoulder  2.77317 5.29681 25.4604
RightArm  -14.5175 -20.823 45.9567
RightForeArm  26.8917 21.8781 3.89663
RightHand  -0.242449 4.3213 -3.16378
LeftUpLeg  -5.14268 5.84621 11.3619
LeftLeg  25.9377 1.15837 0.937957
LeftFoot  -14.6723 -0.133544 -7.60349
LeftToes  4.78349e-008 1.46828e-008 1.33736e-009
54
root  -4.26301 39.7108 -1.95474 50.6726 -84.6331 -53.6801
RightUpLeg  3.10856 -1.06883 7.11352
RightLeg  11.8055 -21.7369 -2.51739
RightFoot  -11.0157 -0.0738409 0.299458
RightToes  -3.1126e-008 1.75238e-005 3.56266e-009
Spine  -9.16845 -2.60469 5.54816
Spine1  19.9799 -5.4948 8.96265
HEad  -15.8712 -5.68729 -17.663
LeftShoulder1  3.06879 -6.3526 -24.9627
LeftArm  -49.5126 29.1066 -64.1132
LeftForeArm  76.2055 -13.8944 1.99597
LeftHand  -0.31198 -5.95125 3.52195
RightShoulder  2.82134 5.38463 25.6997
RightArm  -19.4878 -20.5283 46.1524
RightForeArm  31.0668 19.8737 4.35149
RightHand  -0.164434 3.43716 -2.41558
LeftUpLeg  -4.51659 6.14953 11.0242
LeftLeg  24.9508 1.51019 1.09225
LeftFoot  -14.2852 -0.114214 -7.76744
LeftToes  4.78349e-008 1.46828e-008 1.33736e-009
55
root  -4.36648 39.8099 -2.02569 53.8767 -85.502 -56.8489
RightUpLeg  3.57273 -0.925597 6.74151
RightLeg  11.0265 -21.1414 -2.41785
RightFoot  -10.6264 -0.0651108 0.158603
RightToes  -3.1126e-008 1.75238e-005 3.56266e-009
Spine  -9.72697 -2.14586 5.8474
Spine1  19.3012 -4.4078 7.11954
HEad  -14.544 -10.7388 -24.9417
LeftShoulder1  2.79817 -5.63217 -24.4348
LeftArm  -49.3638 29.0322 -63.2408
LeftForeArm  75.4854 -13.8408 1.92461
LeftHand  -0.310331 -6.05886 3.47527
RightShoulder  2.91803 5.48627 26.4434
RightArm  -23.2024 -19.6215 45.8765
RightForeArm  34.1285 17.3323 5.14957
RightHand  -0.153532 3.15422 -2.3264
LeftUpLeg  -3.40538 6.65482 10.6318
LeftLeg  23.344 1.65973 1.10627
LeftFoot  -13.6281 -0.0798553 -8.0772
LeftToes  4.78349e-008 1.46828e-008 1.33736e-009
56
root  -4.44135 39.924 -2.06239 55.8339 -86.5421 -58.8289
RightUpLeg  4.00964 -1.06402 5.95212
RightLeg  10.3285 -20.3365 -2.2863
RightFoot  -10.1984 -0.0692737 0.211051
RightToes  -3.1126e-008 1.75238e-005 3.56266e-009
Spine  -9.92151 -1.90882 6.47343
Spine1  18.3264 -3.34149 4.54826
HEad  -11.9561 -15.4871 -33.0697
LeftShoulder1  2.68939 -5.3284 -24.2473
LeftArm  -49.5127 28.8589 -61.8053
LeftForeArm  73.3179 -13.9653 1.81192
LeftHand  -0.249601 -5.85886 2.90168
RightShoulder  3.0945 5.80225 27.2693
RightArm  -22.8508 -19.9378 46.0789
RightForeArm  33.8942 17.809 4.95429
RightHand  -0.1309 3.56801 -1.94643
LeftUpLeg  -2.11824 7.04956 9.84332
LeftLeg  21.3559 2.06398 1.21172
LeftFoot  -12.7543 -0.0247376 -8.17351
LeftToes  4.78349e-008 1.46828e-008 1.33736e-009
57
root  -4.51817 40.0022 -2.07773 57.8408 -87.2728 -61.1129
RightUpLeg  4.70187 -1.23631 5.37449
RightLeg  9.69911 -19.7482 -2.16136
RightFoot  -9.93078 -0.0717065 0.234239
RightToes  -3.1126e-008 1.75238e-005 3.56266e-009
Spine  -10.191 -1.71612 7.46571
Spine1  18.3154 -2.37291 1.83709
HEad  -9.11988 -20.0151 -40.0906
LeftShoulder1  2.81097 -5.56033 -24.8343
LeftArm  -49.1904 28.0389 -59.4687
LeftForeArm  71.1744 -14.2438 1.60059
LeftHand  -0.258196 -5.47716 3.08008
RightShoulder  3.23116 6.10815 27.6449
RightArm  -19.6289 -19.998 46.6497
RightForeArm  30.7097 19.4298 4.56404
RightHand  -0.11431 2.99702 -1.81033
LeftUpLeg  -0.778069 7.46569 9.34316
LeftLeg  19.7677 2.21926 1.20558
LeftFoot  -12.2405 0.00971124 -8.0893
LeftToes  4.78349e-008 1.46828e-008 1.33736e-009
58
root  -4.5314 40.0134 -2.08499 56.2178 -87.3495 -59.8645
RightUpLeg  5.19714 -1.44497 5.19058
RightLeg  9.57044 -19.6256 -2.00662
RightFoot  -9.98801 -0.0633419 0.0918527
RightToes  -3.1126e-008 1.75238e-005 3.56266e-009
Spine  -10.4696 -1.51968 8.69412
Spine1  18.7735 -1.32985 -1.0763
HEad  -8.10461 -23.4658 -42.4855
LeftShoulder1  2.97973 -5.97794 -25.2742
LeftArm  -48.048 25.9496 -56.8198
LeftForeArm  69.3657 -13.7255 1.55552
LeftHand  -0.353658 -4.79189 4.31984
RightShoulder  3.27388 6.27466 27.5021
RightArm  -15.5747 -20.0795 47.95
RightForeArm  27.9501 21.3386 3.99962
RightHand  -0.0835161 3.32654 -1.35488
LeftUpLeg  -0.028359 7.42741 9.30504
LeftLeg  19.1704 2.18163 1.16355
LeftFoot  -12.2742 0.00729972 -8.0816
LeftToes  4.78349e-008 1.46828e-008 1.33736e-009
